<svg width="200" height="200" viewBox="0 0 200 200" fill="none" xmlns="http://www.w3.org/2000/svg">
  <!-- Sharp angular K logo inspired by the Kybera branding -->
  <g transform="translate(25, 20)">
    <!-- Left vertical bar -->
    <polygon points="0,0 30,0 30,160 0,160" fill="white"/>
    
    <!-- Upper diagonal -->
    <polygon points="30,60 30,90 90,30 90,0 75,0 30,45" fill="white"/>
    <polygon points="75,0 90,0 150,60 150,90 135,90 75,30" fill="white"/>
    
    <!-- Lower diagonal  -->
    <polygon points="30,100 30,70 75,115" fill="white"/>
    <polygon points="75,115 90,130 150,70 150,100 90,160 75,145" fill="white"/>
    <polygon points="90,130 90,160 150,100 150,130" fill="white"/>
  </g>
</svg>
